<svg width="256" height="256" viewBox="0 0 128 128" fill="none" xmlns="http://www.w3.org/2000/svg">
<rect width="128" height="128" fill="black"/>
<path fill-rule="evenodd" clip-rule="evenodd" d="M57.6951 44.8949H57.5073C55.8989 44.8949 54.74 43.7307 54.74 42.115V41.9259C54.74 40.6599 54.3632 39.5394 53.5665 38.7388C52.7699 37.9382 51.654 37.5601 50.3939 37.5601H31.6479C30.3872 37.5601 29.2719 37.9382 28.4753 38.7388C27.678 39.5394 27.3012 40.6599 27.3012 41.9259V42.115C27.3012 43.7307 26.1425 44.8949 24.5345 44.8949H24.3461C23.0857 44.8949 21.9703 45.2737 21.1734 46.0737C20.3767 46.8743 20 47.9948 20 49.2608V78.7464C20 80.0131 20.3767 81.1336 21.1734 81.9342C21.9703 82.7341 23.0857 83.1129 24.3461 83.1129H24.5345C26.1425 83.1129 27.3012 84.2772 27.3012 85.8929V86.0819C27.3012 87.3479 27.678 88.4685 28.4753 89.2691C29.2719 90.0697 30.3872 90.4478 31.6479 90.4478H50.4085C51.6685 90.4478 52.7845 90.0697 53.5811 89.2691C54.3777 88.4685 54.7545 87.3479 54.7545 86.0819V85.8929C54.7545 84.2772 55.9134 83.1129 57.5212 83.1129H57.7096C58.9704 83.1129 60.0856 82.7341 60.8822 81.9342C61.6795 81.1336 62.0557 80.0131 62.0557 78.7464V49.2608C62.0557 47.9948 61.6795 46.8743 60.8822 46.0737C60.0711 45.2737 58.9558 44.8949 57.6951 44.8949ZM29.7935 72.2558V49.436C29.7935 47.9076 31.0245 46.6561 32.5602 46.6561H47.7575C49.4089 46.6561 50.3939 48.5191 49.4664 49.8869L33.5452 73.4199C32.4154 75.1084 29.7935 74.2933 29.7935 72.2558ZM52.9868 78.5573C52.9868 80.0858 51.7558 81.3373 50.2201 81.3373H35.4723C33.8209 81.3373 32.8359 79.4743 33.7773 78.1065L49.235 55.4024C50.3794 53.7292 52.9868 54.5443 52.9868 56.5673V78.5573Z" fill="white"/>
<path fill-rule="evenodd" clip-rule="evenodd" d="M103.639 44.8949H103.451C101.843 44.8949 100.684 43.7307 100.684 42.115V41.9259C100.684 40.6599 100.307 39.5394 99.5109 38.7388C98.7142 37.9382 97.5983 37.5601 96.3382 37.5601H77.5915C76.3315 37.5601 75.2162 37.9382 74.4189 38.7388C73.6223 39.5394 73.2455 40.6599 73.2455 41.9259V42.115C73.2455 43.7307 72.0866 44.8949 70.4788 44.8949H70.2904C69.0296 44.8949 67.9144 45.2737 67.1178 46.0737C66.3211 46.8743 65.9443 47.9948 65.9443 49.2608V78.7464C65.9443 80.0131 66.3211 81.1336 67.1178 81.9342C67.9144 82.7341 69.0296 83.1129 70.2904 83.1129H70.4788C72.0866 83.1129 73.2455 84.2772 73.2455 85.8929V86.0819C73.2455 87.3479 73.6223 88.4685 74.4189 89.2691C75.2162 90.0697 76.3315 90.4478 77.5915 90.4478H96.3528C97.6129 90.4478 98.7281 90.0697 99.5254 89.2691C100.322 88.4685 100.699 87.3479 100.699 86.0819V85.8929C100.699 84.2772 101.858 83.1129 103.466 83.1129H103.654C104.915 83.1129 106.03 82.7341 106.827 81.9342C107.623 81.1336 108 80.0131 108 78.7464V49.2608C108 47.9948 107.623 46.8743 106.827 46.0737C106.015 45.2737 104.9 44.8949 103.639 44.8949ZM75.7371 72.2558V49.436C75.7371 47.9076 76.9688 46.6561 78.5045 46.6561H93.7011C95.3532 46.6561 96.3383 48.5191 95.4107 49.8869L79.4895 73.4199C78.3597 75.1084 75.7371 74.2933 75.7371 72.2558ZM96.1644 81.3373C97.7001 81.3373 98.9311 80.0858 98.9311 78.5573L98.9172 56.5673C98.9172 54.5443 96.3092 53.7292 95.1648 55.4031L79.707 78.1065C78.7656 79.4743 79.7507 81.3373 81.4021 81.3373H96.1644Z" fill="white"/>
</svg>
